<svg xmlns="http://www.w3.org/2000/svg" xmlns:svg="http://www.w3.org/2000/svg" xmlns:xlink="http://www.w3.org/1999/xlink" id="svg71" width="32" height="32" version="1.1" viewBox="0 0 32 32"><defs id="defs57"><linearGradient id="c" x1="50%" x2="50%" y1="0%" y2="100%"><stop id="stop42" offset="0%" stop-color="#FFF" stop-opacity=".5"/><stop id="stop44" offset="100%" stop-opacity=".5"/></linearGradient><filter id="a" width="1.08" height="1.097" x="-.04" y="-.04" filterUnits="objectBoundingBox"><feOffset id="feOffset47" dy=".5" in="SourceAlpha" result="shadowOffsetOuter1"/><feGaussianBlur id="feGaussianBlur49" in="shadowOffsetOuter1" result="shadowBlurOuter1" stdDeviation=".5"/><feComposite id="feComposite51" in="shadowBlurOuter1" in2="SourceAlpha" operator="out" result="shadowBlurOuter1"/><feColorMatrix id="feColorMatrix53" in="shadowBlurOuter1" values="0 0 0 0 0 0 0 0 0 0 0 0 0 0 0 0 0 0 0.199473505 0"/></filter><circle id="b" cx="16" cy="15" r="15"/><rect id="SVGID_1_" width="24" height="24"/></defs><style id="style155" type="text/css">.st0{clip-path:url(#SVGID_2_)}.st1{fill:url(#SVGID_3_)}.st2{fill:url(#SVGID_4_)}.st3{fill:url(#SVGID_5_)}.st4{fill:#0e0f23}.st5{fill-rule:evenodd;clip-rule:evenodd}.st5,.st6{fill:#fff}</style><g id="g198" transform="matrix(1.1564618,0,0,1.1564618,2.1360919,1.9778143)"><defs id="defs158"><rect id="rect207" width="24" height="24" x="0" y="0"/></defs><clipPath id="SVGID_2_"><use style="overflow:visible" id="use160" width="100%" height="100%" x="0" y="0" xlink:href="#SVGID_1_"/></clipPath><g id="g196" class="st0" clip-path="url(#SVGID_2_)"><linearGradient id="SVGID_3_" x1="20.644" x2="24.333" y1="1011.506" y2="998.839" gradientTransform="matrix(1,0,0,-1,-12,1012)" gradientUnits="userSpaceOnUse"><stop style="stop-color:#03b8ff" id="stop163" offset="0"/><stop style="stop-color:#fa52a0" id="stop165" offset="1"/></linearGradient><path id="path168" d="M 5,2.3 23.6,15 19,21.8 0.4,9 Z" class="st1" style="fill:url(#SVGID_3_)"/><linearGradient id="SVGID_4_" x1="23.682" x2="27.371" y1="1012.39" y2="999.724" gradientTransform="matrix(1,0,0,-1,-12,1012)" gradientUnits="userSpaceOnUse"><stop style="stop-color:#03b8ff" id="stop170" offset="0"/><stop style="stop-color:#fa52a0" id="stop172" offset="1"/></linearGradient><path id="path175" d="M 23.6,15 C 22,17.3 16.6,16.4 11.5,12.8 6.3,9.3 3.5,4.6 5,2.3 6.6,0 12,0.9 17.1,4.5 c 5.2,3.4 8,8.2 6.5,10.5 z" class="st2" style="fill:url(#SVGID_4_)"/><linearGradient id="SVGID_5_" x1="17.616" x2="21.305" y1="1010.624" y2="997.958" gradientTransform="matrix(1,0,0,-1,-12,1012)" gradientUnits="userSpaceOnUse"><stop style="stop-color:#03b8ff" id="stop177" offset="0"/><stop style="stop-color:#fa52a0" id="stop179" offset="1"/></linearGradient><path id="path182" d="M 19,21.7 C 17.4,24 12,23.1 6.9,19.5 1.8,15.9 -1.1,11.3 0.5,8.9 c 1.6,-2.3 7,-1.4 12.1,2.2 5.1,3.6 7.9,8.3 6.4,10.6 z" class="st3" style="fill:url(#SVGID_5_)"/><path id="path184" d="m 23.6,15 c 0,0 0,0 0,0 L 19,21.8 v 0 C 17.4,24.1 12,23.1 6.9,19.6 5.9,18.9 5,18.2 4.1,17.4 c 0.7,-0.1 1.6,-0.5 2.5,-1.5 1.6,-1.7 2.4,-2.1 3.1,-2 0.7,0 1.5,0.7 2.8,2.4 1.3,1.7 3.1,2.2 4.2,1.3 0.1,-0.1 0.2,-0.1 0.3,-0.2 0.9,-0.7 1.2,-1 2.9,-4.2 0.4,-0.8 1.8,-2.1 3.7,-1.5 0.5,1.3 0.5,2.4 0,3.3 z" class="st4"/><path id="path186" d="m 22.9,14.6 c -1.4,2 -6.3,1 -11,-2.3 C 7.1,9 4.3,4.8 5.7,2.8 c 1.4,-2 6.3,-1 11,2.3 4.7,3.3 7.5,7.5 6.2,9.5 z m -4.4,-3 c -0.7,1 -3.1,0.5 -5.5,-1.1 -2.3,-1.6 -3.7,-3.7 -3,-4.7 0.7,-1 3.1,-0.5 5.5,1.1 2.3,1.6 3.7,3.7 3,4.7 z" class="st5"/><path id="path188" d="M 4.6,4.6 C 4.6,4.5 4.5,4.4 4.4,4.5 4.3,4.6 4.2,4.6 4.2,4.7 4.3,5 4.4,5.2 4.4,5.4 c 0,0.1 0.1,0.2 0.2,0.1 0.1,0 0.2,-0.1 0.1,-0.2 0,-0.2 0,-0.4 -0.1,-0.7 z" class="st6"/><path id="path190" d="M 5.1,6.2 C 5.1,6.1 5,6 4.9,6.1 4.8,6.2 4.8,6.2 4.8,6.3 c 1.1,2.5 3.4,5.2 6.4,7.2 0.1,0.1 0.2,0 0.3,0 0.1,-0.1 0,-0.2 0,-0.3 -3.1,-2 -5.3,-4.6 -6.4,-7 z" class="st6"/><path id="path192" d="m 17.2,16 c -0.1,0 -0.2,0 -0.2,0.1 0,0.1 0,0.2 0.1,0.2 0.3,0.1 0.7,0.2 1,0.3 0.1,0 0.2,0 0.2,-0.1 0,-0.1 0,-0.2 -0.1,-0.2 -0.3,-0.1 -0.7,-0.2 -1,-0.3 z" class="st6"/><path id="path194" d="m 19,16.4 c -0.1,0 -0.2,0.1 -0.2,0.2 0,0.1 0.1,0.2 0.2,0.2 0.8,0.1 1.7,0.2 2.4,0.1 0.1,0 0.2,-0.1 0.2,-0.2 0,-0.1 -0.1,-0.2 -0.2,-0.2 -0.8,0.1 -1.6,0 -2.4,-0.1 z" class="st6"/></g></g></svg>